<?xml version="1.0" encoding="UTF-8" standalone="no"?>
<svg
   xmlns:dc="http://purl.org/dc/elements/1.1/"
   xmlns:cc="http://creativecommons.org/ns#"
   xmlns:rdf="http://www.w3.org/1999/02/22-rdf-syntax-ns#"
   xmlns:svg="http://www.w3.org/2000/svg"
   xmlns="http://www.w3.org/2000/svg"
   xmlns:sodipodi="http://sodipodi.sourceforge.net/DTD/sodipodi-0.dtd"
   xmlns:inkscape="http://www.inkscape.org/namespaces/inkscape"
   inkscape:version="1.0beta2 (2b71d25, 2019-12-03)"
   sodipodi:docname="fish-sm.svg"
   id="svg889"
   version="1.1"
   width="524.71259"
   viewBox="0 0 524.71259 229.67579"
   height="229.6758">
  <metadata
     id="metadata895">
    <rdf:RDF>
      <cc:Work
         rdf:about="">
        <dc:format>image/svg+xml</dc:format>
        <dc:type
           rdf:resource="http://purl.org/dc/dcmitype/StillImage" />
        <dc:title></dc:title>
      </cc:Work>
    </rdf:RDF>
  </metadata>
  <defs
     id="defs893" />
  <sodipodi:namedview
     fit-margin-bottom="0"
     fit-margin-right="0"
     fit-margin-left="0"
     fit-margin-top="0"
     inkscape:current-layer="g887"
     inkscape:window-maximized="0"
     inkscape:window-y="0"
     inkscape:window-x="0"
     inkscape:cy="158.99663"
     inkscape:cx="294.50188"
     inkscape:zoom="0.97339968"
     showgrid="false"
     id="namedview891"
     inkscape:window-height="966"
     inkscape:window-width="1673"
     inkscape:pageshadow="2"
     inkscape:pageopacity="0"
     guidetolerance="10"
     gridtolerance="10"
     objecttolerance="10"
     borderopacity="1"
     inkscape:document-rotation="0"
     bordercolor="#666666"
     pagecolor="#ffffff" />
  <g
     id="g887"
     transform="translate(-74.104571,-180.67631)">
    <path
       inkscape:connector-curvature="0"
       id="path833"
       stroke-width="8.0758"
       stroke="#006991"
       fill="#b6e4fa"
       d="m 78.142471,295.51421 c 0,-61.2 49.599999,-110.8 110.799999,-110.8 2.6,0 5.2,0.1 7.7,0.3 21.4,31.5 33.8,69.5 33.8,110.5 0,41 -12.5,79 -33.8,110.5 -2.6,0.2 -5.1,0.3 -7.7,0.3 -61.2,-0.1 -110.799999,-49.6 -110.799999,-110.8 z" />
    <path
       inkscape:connector-curvature="0"
       id="path835"
       stroke-width="8.0758"
       stroke="#006991"
       fill="#b6e4fa"
       d="m 539.65683,393.42532 c 13.7,-4.9 26,-12.6 36.3,-22.4 -14.3,-14.8 -23,-34.9 -23,-57 0,-30.1 16.2,-56.4 40.3,-70.7 -12.2,-20.2 -31,-35.8 -53.5,-43.8 -26,61.9 -26,132 -0.1,193.9 z" />
    <path
       inkscape:connector-curvature="0"
       id="path837"
       stroke-width="7.55906"
       stroke-dasharray="60.4724 7.55906"
       stroke="#1a3c00"
       fill="none"
       d="m 230.57271,361.12675 c 3.01123,9.86584 32.58351,28.11085 56.70349,11.73191 7.00009,-4.75349 13.00477,-11.90441 17.05808,-25.41491 2.17829,-46.33576 -35.18197,-53.86488 -43.4357,-50.95931 -8.25371,2.90556 -26.14405,44.90419 31.90428,52.7407 63.26717,0.16133 64.40075,-38.79797 58.75532,-43.34713 -2.09662,-8.61251 -31.07346,-27.41151 -38.43807,9.50075 1.8206,36.68648 55.02567,34.70979 67.70923,21.72642 14.23833,-14.57488 10.71439,-25.52478 16.30538,-30.03959 2.63988,-2.13174 21.116,-2.37518 15.62484,23.75187 -5.49114,26.12705 -47.99086,29.8076 -45.82616,-9.50075 11.3499,-42.46872 54.30738,-31.83423 61.75051,-23.75186 15.21302,16.51955 13.89282,29.2996 31.76647,22.94116 16.07299,-5.71786 23.462,13.63022 23.462,13.63022" />
    <g
       transform="matrix(0.81064772,0,0,0.99304398,42.330135,2.3358549)"
       id="g885"
       stroke="#000"
       fill="none">
      <path
         inkscape:connector-curvature="0"
         id="path861"
         stroke-width="7.4818"
         d="m 578.5,292.9 c 0,14.7 -5.1,28 -13.4,37.6" />
      <path
         inkscape:connector-curvature="0"
         id="path863"
         stroke-width="7.4818"
         d="m 562.6,252.6 c 6.7,6.7 11.7,15.7 14.1,25.8" />
      <g
         id="g883"
         stroke-width="8.0758">
        <path
           inkscape:connector-curvature="0"
           id="path865"
           d="m 292.9,237.3 c -23.2,-0.1 -46.3,0.7 -69.1,2.3 v 12.8 c 22.9,-1.6 45.9,-2.4 69.1,-2.3 102.3,0.4 199.7,13.1 293,44.8 v -12.8 c -93.2,-31.6 -190.6,-44.4 -293,-44.8 z" />
        <path
           inkscape:connector-curvature="0"
           id="path867"
           d="m 225.8,187.9 c 15.4,12.7 25,31.1 24.9,51.5" />
        <path
           inkscape:connector-curvature="0"
           id="path869"
           d="m 268.4,191.8 c 14.3,11.8 23.3,28.9 23.1,47.9" />
        <path
           inkscape:connector-curvature="0"
           id="path871"
           d="m 310.9,194.8 c 13.5,11.1 21.9,27.2 21.8,45.1" />
        <path
           inkscape:connector-curvature="0"
           id="path873"
           d="m 353.3,200.3 c 12.8,10.5 20.7,25.8 20.6,42.7" />
        <path
           inkscape:connector-curvature="0"
           id="path875"
           d="m 395.8,206.2 c 11.8,9.7 19.1,23.8 19,39.4" />
        <path
           inkscape:connector-curvature="0"
           id="path877"
           d="m 438.2,216.7 c 11,9 17.8,22.1 17.7,36.6" />
        <path
           inkscape:connector-curvature="0"
           id="path879"
           d="m 480.6,226.4 c 10.1,8.3 16.5,20.4 16.4,33.9" />
        <path
           inkscape:connector-curvature="0"
           id="path881"
           d="m 522.9,239.6 c 9.4,7.7 15.3,19 15.2,31.5" />
      </g>
    </g>
  </g>
</svg>
